<svg width="84" height="37" viewBox="0 0 84 37" fill="none" xmlns="http://www.w3.org/2000/svg">
<path d="M0 21.5385L9.84613 0H12.0923L21.9384 21.5385H19.5384L10.4923 1.32308H11.4154L2.36923 21.5385H0ZM3.87692 15.7846L4.55385 13.9385H17.0769L17.7538 15.7846H3.87692ZM25.5015 21.5385V0H33.563C35.3886 0 36.9579 0.297436 38.2707 0.892309C39.5835 1.46667 40.5886 2.30769 41.2861 3.41539C42.004 4.50257 42.363 5.82564 42.363 7.38462C42.363 8.90257 42.004 10.2154 41.2861 11.3231C40.5886 12.4103 39.5835 13.2513 38.2707 13.8462C36.9579 14.441 35.3886 14.7385 33.563 14.7385H26.763L27.7784 13.6615V21.5385H25.5015ZM27.7784 13.8462L26.763 12.7385H33.5015C35.6553 12.7385 37.2861 12.2769 38.3938 11.3538C39.522 10.4103 40.0861 9.08718 40.0861 7.38462C40.0861 5.66154 39.522 4.32821 38.3938 3.38462C37.2861 2.44103 35.6553 1.96923 33.5015 1.96923H26.763L27.7784 0.892309V13.8462ZM49.3171 9.63077H60.7017V11.5692H49.3171V9.63077ZM49.5632 19.5692H62.5171V21.5385H47.2863V0H62.0556V1.96923H49.5632V19.5692ZM64.6141 21.5385L73.4449 9.6V11.3538L65.1372 0H67.7526L74.7372 9.47692L73.7218 9.50769L80.7065 0H83.168L74.9526 11.2V9.6L83.7526 21.5385H81.1065L73.6603 11.4154H74.6141L67.2295 21.5385H64.6141ZM3.90441 37C3.23774 37 2.59671 36.8931 1.98133 36.6795C1.37449 36.4572 0.904405 36.1752 0.571072 35.8333L0.942867 35.1026C1.25911 35.4103 1.68219 35.671 2.2121 35.8846C2.75056 36.0897 3.31466 36.1923 3.90441 36.1923C4.46851 36.1923 4.92578 36.1239 5.2762 35.9872C5.63517 35.8419 5.89586 35.6496 6.05825 35.4103C6.22921 35.171 6.31466 34.906 6.31466 34.6154C6.31466 34.2649 6.2121 33.9829 6.00697 33.7692C5.81039 33.5556 5.54971 33.3889 5.22492 33.2692C4.90014 33.141 4.54116 33.0299 4.14799 32.9359C3.75483 32.8419 3.36167 32.7436 2.96851 32.641C2.57535 32.5299 2.2121 32.3846 1.87876 32.2051C1.55398 32.0256 1.28902 31.7906 1.08389 31.5C0.887315 31.2008 0.78902 30.812 0.78902 30.3333C0.78902 29.8889 0.904405 29.4829 1.13517 29.1154C1.37449 28.7393 1.73774 28.4402 2.22492 28.2179C2.7121 27.9872 3.33603 27.8718 4.09671 27.8718C4.60099 27.8718 5.10099 27.9444 5.59671 28.0897C6.09244 28.2265 6.51978 28.4188 6.87876 28.6667L6.55824 29.4231C6.17364 29.1667 5.76338 28.9787 5.32748 28.859C4.90014 28.7393 4.4856 28.6795 4.08389 28.6795C3.54543 28.6795 3.10099 28.7521 2.75056 28.8974C2.40014 29.0428 2.13945 29.2393 1.96851 29.4872C1.80612 29.7265 1.72492 30 1.72492 30.3077C1.72492 30.6581 1.82321 30.9402 2.01979 31.1538C2.22492 31.3675 2.48988 31.5342 2.81466 31.6538C3.14799 31.7735 3.51124 31.8803 3.90441 31.9744C4.29757 32.0684 4.68646 32.171 5.07107 32.282C5.46424 32.3931 5.82321 32.5385 6.14799 32.7179C6.48132 32.8889 6.74626 33.1197 6.94286 33.4103C7.14799 33.7008 7.25055 34.0812 7.25055 34.5513C7.25055 34.9872 7.13087 35.3931 6.89158 35.7692C6.65228 36.1367 6.28472 36.4359 5.78902 36.6667C5.30184 36.8889 4.67364 37 3.90441 37ZM9.31767 36.9231V27.9487H12.6766C13.4373 27.9487 14.0912 28.0726 14.6382 28.3205C15.1852 28.5598 15.604 28.9103 15.8946 29.3718C16.1938 29.8248 16.3433 30.3761 16.3433 31.0256C16.3433 31.6581 16.1938 32.2051 15.8946 32.6667C15.604 33.1197 15.1852 33.4701 14.6382 33.7179C14.0912 33.9658 13.4373 34.0897 12.6766 34.0897H9.84331L10.2664 33.641V36.9231H9.31767ZM10.2664 33.7179L9.84331 33.2564H12.651C13.5484 33.2564 14.2279 33.0641 14.6895 32.6795C15.1595 32.2863 15.3946 31.7351 15.3946 31.0256C15.3946 30.3077 15.1595 29.7521 14.6895 29.359C14.2279 28.9658 13.5484 28.7692 12.651 28.7692H9.84331L10.2664 28.3205V33.7179ZM18.3947 36.9231V27.9487H19.3434V36.1026H24.3691V36.9231H18.3947ZM26.7904 31.9615H31.534V32.7692H26.7904V31.9615ZM26.893 36.1026H32.2904V36.9231H25.9443V27.9487H32.0981V28.7692H26.893V36.1026ZM34.5205 36.9231V27.9487H35.3025L41.4949 35.7436H41.0846V27.9487H42.0205V36.9231H41.2384L35.059 29.1282H35.4692V36.9231H34.5205ZM44.9497 36.9231V27.9487H48.6035C49.5608 27.9487 50.3984 28.141 51.1163 28.5256C51.8429 28.9017 52.407 29.4274 52.8086 30.1026C53.2104 30.7778 53.4112 31.5556 53.4112 32.4359C53.4112 33.3162 53.2104 34.094 52.8086 34.7692C52.407 35.4444 51.8429 35.9744 51.1163 36.359C50.3984 36.7351 49.5608 36.9231 48.6035 36.9231H44.9497ZM45.8984 36.1026H48.5522C49.3471 36.1026 50.0352 35.9487 50.6163 35.641C51.2061 35.3248 51.6634 34.8931 51.9881 34.3462C52.3129 33.7906 52.4753 33.1538 52.4753 32.4359C52.4753 31.7094 52.3129 31.0726 51.9881 30.5256C51.6634 29.9787 51.2061 29.5513 50.6163 29.2436C50.0352 28.9274 49.3471 28.7692 48.5522 28.7692H45.8984V36.1026ZM59.4647 37C58.7895 37 58.1613 36.8889 57.5801 36.6667C57.0074 36.4359 56.5074 36.1154 56.0801 35.7051C55.6613 35.2863 55.3322 34.8034 55.0929 34.2564C54.8622 33.7008 54.7468 33.094 54.7468 32.4359C54.7468 31.7778 54.8622 31.1752 55.0929 30.6282C55.3322 30.0726 55.6613 29.5897 56.0801 29.1795C56.5074 28.7607 57.0074 28.4402 57.5801 28.2179C58.1527 27.9872 58.7809 27.8718 59.4647 27.8718C60.1399 27.8718 60.7638 27.9872 61.3365 28.2179C61.9091 28.4402 62.4048 28.7564 62.8237 29.1667C63.251 29.5769 63.5801 30.0598 63.8109 30.6154C64.05 31.171 64.1699 31.7778 64.1699 32.4359C64.1699 33.094 64.05 33.7008 63.8109 34.2564C63.5801 34.812 63.251 35.2949 62.8237 35.7051C62.4048 36.1154 61.9091 36.4359 61.3365 36.6667C60.7638 36.8889 60.1399 37 59.4647 37ZM59.4647 36.1538C60.0032 36.1538 60.4989 36.0641 60.9519 35.8846C61.4134 35.6966 61.8109 35.4359 62.1442 35.1026C62.4861 34.7607 62.751 34.3675 62.9391 33.9231C63.1271 33.4701 63.2211 32.9744 63.2211 32.4359C63.2211 31.8974 63.1271 31.406 62.9391 30.9615C62.751 30.5085 62.4861 30.1154 62.1442 29.7821C61.8109 29.4402 61.4134 29.1795 60.9519 29C60.4989 28.812 60.0032 28.7179 59.4647 28.7179C58.9263 28.7179 58.4263 28.812 57.9647 29C57.5032 29.1795 57.1015 29.4402 56.7596 29.7821C56.4263 30.1154 56.1613 30.5085 55.9647 30.9615C55.7766 31.406 55.6827 31.8974 55.6827 32.4359C55.6827 32.9658 55.7766 33.4572 55.9647 33.9103C56.1613 34.3633 56.4263 34.7607 56.7596 35.1026C57.1015 35.4359 57.5032 35.6966 57.9647 35.8846C58.4263 36.0641 58.9263 36.1538 59.4647 36.1538ZM69.9116 37C68.7667 37 67.8648 36.671 67.2065 36.0128C66.5488 35.3547 66.2193 34.3803 66.2193 33.0897V27.9487H67.168V33.0513C67.168 34.1111 67.4077 34.8931 67.8859 35.3974C68.3648 35.9017 69.0398 36.1538 69.9116 36.1538C70.7924 36.1538 71.4718 35.9017 71.95 35.3974C72.4289 34.8931 72.668 34.1111 72.668 33.0513V27.9487H73.5911V33.0897C73.5911 34.3803 73.2622 35.3547 72.6039 36.0128C71.9545 36.671 71.0571 37 69.9116 37ZM76.45 36.9231V27.9487H79.809C80.5699 27.9487 81.2238 28.0726 81.7706 28.3205C82.3174 28.5598 82.7366 28.9103 83.027 29.3718C83.3263 29.8248 83.4757 30.3761 83.4757 31.0256C83.4757 31.6581 83.3263 32.2051 83.027 32.6667C82.7366 33.1197 82.3174 33.4701 81.7706 33.7179C81.2238 33.9572 80.5699 34.0769 79.809 34.0769H76.9757L77.3988 33.641V36.9231H76.45ZM82.5783 36.9231L80.2706 33.6667H81.2962L83.6167 36.9231H82.5783ZM77.3988 33.7179L76.9757 33.2692H79.7834C80.6808 33.2692 81.3603 33.0726 81.8218 32.6795C82.2917 32.2863 82.527 31.7351 82.527 31.0256C82.527 30.3077 82.2917 29.7521 81.8218 29.359C81.3603 28.9658 80.6808 28.7692 79.7834 28.7692H76.9757L77.3988 28.3205V33.7179Z" fill="black"/>
</svg>
