<svg width="600" height="600" viewBox="0 0 600 600" fill="none" xmlns="http://www.w3.org/2000/svg">
<path d="M324 68V78.5C330.4 79.7 336.6 81.2 342.2 82.7C355 86.1 362.6 99.3 359.2 112.1C355.8 124.9 342.6 132.5 329.8 129.1C318.9 126.2 308.7 124.2 299.6 124.1C292.3 124 284.9 125.8 280.2 128.5C278.1 129.8 277.1 130.9 276.7 131.5C276.4 132 276 132.7 276 134.3V134.9C276.2 135.1 276.9 136.1 279.3 137.5C285.1 141 293.7 143.7 306.7 147.6L307.6 147.9C318.7 151.2 333.5 155.7 345.5 163.2C359.2 171.8 371.6 186.1 371.9 208.1C372.2 230.6 360.5 247 345.2 256.6C338.5 260.7 331.3 263.6 323.9 265.4V276C323.9 289.3 313.2 300 299.9 300C286.6 300 275.9 289.3 275.9 276V264.6C266.4 262.3 257.7 259.3 250.3 256.8C248.2 256.1 246.2 255.4 244.3 254.8C231.7 250.6 224.9 237 229.1 224.4C233.3 211.8 246.9 205 259.5 209.2C262.1 210.1 264.5 210.9 266.8 211.7C280.4 216.3 290.2 219.6 300.7 220C308.7 220.3 315.8 218.4 319.9 215.9C321.8 214.7 322.7 213.7 323.1 213C323.5 212.4 324 211.2 323.9 208.9V208.7C323.9 207.7 323.9 206.6 319.9 204.1C314.2 200.5 305.6 197.7 292.8 193.8L290.9 193.2C280.1 190 265.9 185.7 254.5 178.8C241 170.7 228 156.8 227.9 134.7C227.8 111.8 240.8 96.1 255.6 87.3C262 83.5 268.9 80.9 275.8 79.1V68C275.8 54.7 286.5 44 299.8 44C313.1 44 323.8 54.7 323.8 68H324ZM580.2 380.3C593.3 398.1 589.5 423.1 571.7 436.2L445.1 529.5C421.7 546.7 393.5 556 364.4 556H44C26.3 556 12 541.7 12 524V460C12 442.3 26.3 428 44 428H80.8L125.7 392C148.4 373.8 176.6 364 205.7 364H364C381.7 364 396 378.3 396 396C396 413.7 381.7 428 364 428H284C275.2 428 268 435.2 268 444C268 452.8 275.2 460 284 460H404.6L524.3 371.8C542.1 358.7 567.1 362.5 580.2 380.3Z" fill="#FF0042"/>
</svg>
