<svg width="600" height="600" viewBox="0 0 600 600" fill="none" xmlns="http://www.w3.org/2000/svg">
<path d="M300 17C143.713 17 17 143.713 17 300C17 456.287 143.713 583 300 583C456.287 583 583 456.287 583 300C582.811 143.784 456.216 17.1887 300.024 17H300ZM288.326 386.999C289.93 391.786 275.945 405.748 274.766 406.55C273.587 407.351 247.645 392.989 243.235 390.985C237.086 380.544 232.337 369.34 229.109 357.661L228.873 356.671L219.298 347.497C219.298 347.497 197.365 331.13 195.361 330.352C193.356 329.574 189.371 298.844 188.097 296.038C184.642 291.145 180.55 286.735 175.928 282.926L175.81 282.831C173.511 273.451 172.308 263.835 172.225 254.178V254.107C173.24 243.942 176.518 234.721 181.541 226.703L181.376 226.962C187.754 216.169 189.594 203.287 186.493 191.139L186.564 191.469C184.159 187.484 168.523 193.356 168.523 193.356C164.482 191.128 160.181 189.409 155.717 188.239L155.316 188.144L147.227 173.051C147.227 173.051 99.0228 169.608 99.8247 168.429C145.741 103.999 220.17 62.4923 304.316 62.4923C315.471 62.4923 326.461 63.2233 337.238 64.6383L335.965 64.4968H338.559C347.19 65.1336 355.161 65.1336 359.689 73.1519C360.586 74.7084 376.764 88.9292 376.363 88.9292H332.168L322.994 96.9003L363.321 121.002C357.803 122.512 346.577 126.002 339.03 128.408C333.921 130.013 329.126 132.486 324.857 135.719L324.975 135.624L309.032 147.581L294.199 168.782L315.801 184.748C315.801 184.748 340.941 203.898 342.214 204.7C343.488 205.502 348.582 188.734 348.582 188.734C348 175.81 347.45 162.871 346.931 149.916L358.888 153.901L376.434 152.298L395.984 167.391C399.357 172.674 402.705 178.805 405.583 185.22L405.96 186.163C405.724 188.852 403.837 203.497 407.233 204.039H407.375C407.998 204.035 408.609 203.864 409.144 203.544C415.205 200.596 420.935 197.177 426.713 193.757C429.449 192.13 435.298 186.942 438.623 186.942C437.184 192.837 435.133 198.026 432.468 202.837L432.633 202.507C432.02 203.45 417.068 228.33 410.7 238.896C408.696 242.197 406.479 245.051 403.932 247.598L383.178 268.729L390.371 281.086L373.014 301.627C371.565 303.339 369.996 304.947 368.321 306.438L368.274 306.485L349.667 322.97C349.667 322.97 329.338 327.758 328.111 327.758C326.885 327.758 311.745 331.342 311.745 331.342C311.745 331.342 283.02 328.559 279.034 343.7C278.146 358.871 281.39 373.998 288.421 387.471L288.208 386.999H288.326ZM500.246 312.994C503.878 312.193 490.577 329.974 489.752 332.757C485.395 338.809 480.544 344.488 475.248 349.737L452.608 352.567C454.426 342.329 459.559 332.972 467.217 325.936C474.874 318.901 484.631 314.578 494.987 313.631L495.176 313.608C497.652 313.372 499.539 313.159 500.246 312.994ZM371.835 383.862L361.246 368.203C360.397 366.93 365.467 361.435 365.467 361.435C365.467 361.435 405.677 355.515 409.474 355.916C413.271 356.317 419.615 368.203 419.615 368.203C419.615 368.203 405.653 386.386 400.984 386.386C396.314 386.386 371.788 383.862 371.788 383.862H371.835ZM382.542 438.764C382.542 438.764 377.707 440.793 372.873 443.198C368.038 445.604 361.977 447.632 361.175 446.028C358.002 442.683 354.421 439.752 350.516 437.302L350.28 437.161C344.42 432.914 338.174 429.227 331.625 426.147L330.918 425.841C324.684 422.634 319.208 418.131 314.858 412.634L314.787 412.54C313.749 410.205 318.82 403.271 319.621 399.64C320.423 396.008 319.22 385.183 321.65 386.433C324.079 387.683 329.314 384.546 334.55 386.433C340.445 388.296 345.469 391.48 349.454 395.654L349.478 395.678C351.907 400.96 355.303 405.394 359.501 408.931L359.548 408.979C363.982 411.809 372.047 415.016 371.646 420.299C371.245 425.581 377.707 432.397 377.707 432.397L382.542 438.764ZM390.419 514.231C368.462 504.491 362.968 493.478 364.642 491.379C371.717 485.106 378.202 478.762 384.358 472.088L384.523 471.899C388.744 465.98 410.771 441.005 410.771 441.005L404.003 427.468L422.869 416.289C428.458 412.941 435.038 410.677 442.113 409.969L442.302 409.946L460.697 408.153C461.797 408.043 462.89 407.972 463.975 407.941L493.643 407.139C493.643 407.139 520.599 400.158 516.495 407.564C454.754 519.113 390.419 514.184 390.419 514.184V514.231Z" fill="#FF0042"/>
</svg>
