<svg width="600" height="600" viewBox="0 0 600 600" fill="none" xmlns="http://www.w3.org/2000/svg">
<path d="M18.8 251.7C5.7 233.9 9.5 208.9 27.3 195.8L153.9 102.5C177.2 85.3 205.5 76 234.5 76H555C572.7 76 587 90.3 587 108V172C587 189.7 572.7 204 555 204H518.2L473.3 240C450.6 258.2 422.4 268 393.3 268H235C217.3 268 203 253.7 203 236C203 218.3 217.3 204 235 204H315C323.8 204 331 196.8 331 188C331 179.2 323.8 172 315 172H194.4L74.7 260.2C56.9 273.3 31.9 269.5 18.8 251.7ZM579.2 348.3C592.3 366.1 588.5 391.1 570.7 404.2L444.1 497.5C420.7 514.7 392.5 524 363.4 524H43C25.3 524 11 509.7 11 492V428C11 410.3 25.3 396 43 396H79.8L124.7 360C147.4 341.8 175.6 332 204.7 332H363C380.7 332 395 346.3 395 364C395 381.7 380.7 396 363 396H283C274.2 396 267 403.2 267 412C267 420.8 274.2 428 283 428H403.6L523.3 339.8C541.1 326.7 566.1 330.5 579.2 348.3Z" fill="#FF0042"/>
</svg>
