<svg width="20" height="20" viewBox="0 0 20 20" fill="none" xmlns="http://www.w3.org/2000/svg">
<path d="M16.6667 8.33329V5.83329C16.6667 5.39127 16.4912 4.96734 16.1786 4.65478C15.866 4.34222 15.4421 4.16663 15.0001 4.16663H5.00008C4.55805 4.16663 4.13413 4.34222 3.82157 4.65478C3.50901 4.96734 3.33341 5.39127 3.33341 5.83329V8.33329C2.89139 8.33329 2.46746 8.50889 2.1549 8.82145C1.84234 9.13401 1.66675 9.55793 1.66675 9.99996V14.1666H2.77508L3.33341 15.8333H4.16675L4.72508 14.1666H15.2751L15.8334 15.8333H16.6667L17.2251 14.1666H18.3334V9.99996C18.3334 9.55793 18.1578 9.13401 17.8453 8.82145C17.5327 8.50889 17.1088 8.33329 16.6667 8.33329ZM10.8334 5.83329H15.0001V8.33329H10.8334M5.00008 5.83329H9.16675V8.33329H5.00008M16.6667 12.5H3.33341V9.99996H16.6667V12.5Z" fill="#737D8C"/>
</svg>
