<svg width="20" height="20" viewBox="0 0 20 20" fill="none" xmlns="http://www.w3.org/2000/svg">
<path d="M17.5001 11.6666V12.5C17.5001 14.0916 16.6084 15.475 15.2917 16.175L15.8334 18.3333H14.1667L13.7501 16.6666C13.6084 16.6666 13.4751 16.6666 13.3334 16.6666H6.66675C6.52508 16.6666 6.39175 16.6666 6.25008 16.6666L5.83341 18.3333H4.16675L4.70841 16.175C3.39175 15.475 2.50008 14.0916 2.50008 12.5V11.6666H1.66675V9.99996H16.6667V4.16663C16.6667 3.94561 16.579 3.73365 16.4227 3.57737C16.2664 3.42109 16.0544 3.33329 15.8334 3.33329C15.4167 3.33329 15.1001 3.61663 15.0001 3.99163C15.5251 4.44163 15.8334 5.10829 15.8334 5.83329H10.8334C10.8334 5.17025 11.0968 4.53437 11.5656 4.06553C12.0345 3.59668 12.6704 3.33329 13.3334 3.33329C13.3834 3.33329 13.4251 3.33329 13.4751 3.33329C13.8167 2.36663 14.7417 1.66663 15.8334 1.66663C16.4965 1.66663 17.1323 1.93002 17.6012 2.39886C18.07 2.8677 18.3334 3.50358 18.3334 4.16663V11.6666H17.5001ZM15.8334 11.6666H4.16675V12.5C4.16675 13.163 4.43014 13.7989 4.89898 14.2677C5.36782 14.7366 6.00371 15 6.66675 15H13.3334C13.9965 15 14.6323 14.7366 15.1012 14.2677C15.57 13.7989 15.8334 13.163 15.8334 12.5V11.6666Z" fill="#737D8C"/>
</svg>
